<svg width="176" height="80" viewBox="0 0 176 80" fill="none" xmlns="http://www.w3.org/2000/svg">
<path fill-rule="evenodd" clip-rule="evenodd" d="M37.2161 44.5371L59.8689 30.8295V40.4313L29 59.2199L37.2161 44.5371Z" fill="#8D4D91"/>
<path fill-rule="evenodd" clip-rule="evenodd" d="M52.1699 7V42.1136L59.8689 47.1232V21.3497L52.1699 7Z" fill="#F1B945"/>
<path fill-rule="evenodd" clip-rule="evenodd" d="M52.1699 7L83.257 26.0908H67.7135L59.8689 21.3497L52.1699 7Z" fill="#E07C3D"/>
<path fill-rule="evenodd" clip-rule="evenodd" d="M59.9008 40.4312L83.2569 26.088H67.7134L59.8689 30.8293L59.9008 40.4312Z" fill="#C72C55"/>
<path fill-rule="evenodd" clip-rule="evenodd" d="M59.8689 49.0869V59.3231L52.1699 73.4526V43.129L59.8689 49.0869Z" fill="#75AF45"/>
<path fill-rule="evenodd" clip-rule="evenodd" d="M67.7135 54.5035L59.8689 59.3231L52.1699 73.4527L83.257 54.5035H67.7135Z" fill="#00853F"/>
<path fill-rule="evenodd" clip-rule="evenodd" d="M29 21.4132L37.2161 36.01V44.5371L29 59.22V21.4132Z" fill="#5C579E"/>
<path fill-rule="evenodd" clip-rule="evenodd" d="M29 21.4132L37.2161 36.01L67.7134 54.5035H83.257L29 21.4132Z" fill="#4386C5"/>
<path d="M147.614 31.7856V48.3172H141.772V36.7161H136.178V48.3172H130.336V31.7856H147.614Z" fill="#1D1346"/>
<path d="M127.56 40.9836C127.56 45.7898 123.541 48.9801 118.155 48.9801C112.562 48.9801 108.501 45.6241 108.501 38.0005C108.501 31.4541 112.686 26.0679 118.859 25.985C121.552 25.985 127.394 25.8607 127.394 25.8607L124.784 30.6669C124.784 30.6669 120.144 30.6669 119.522 30.6669C116.871 30.6669 114.426 32.6557 114.095 35.4316C115.503 34.1058 117.409 33.3186 119.688 33.3186C124.618 33.3186 127.56 36.3017 127.56 40.9836ZM121.594 40.9836C121.594 38.8291 120.185 37.5447 118.196 37.5447C116.125 37.5447 114.758 38.8291 114.758 40.9836C114.758 43.0138 116.125 44.5054 118.196 44.5054C120.351 44.5054 121.594 42.9309 121.594 40.9836Z" fill="#1D1346"/>
<path d="M103.902 43.3038C103.902 43.3038 102.494 44.0911 100.38 44.2568C97.9774 44.3397 95.8229 42.8481 95.8229 40.1964C95.8229 37.6276 97.7288 36.136 100.339 36.136C101.955 36.136 104.068 37.2133 104.068 37.2133C104.068 37.2133 105.601 34.4373 106.43 33.0286C104.98 31.9513 102.991 31.3298 100.712 31.3298C94.9528 31.3298 90.5195 34.9759 90.5195 40.1135C90.5195 45.334 94.7042 48.8972 100.712 48.7729C102.411 48.6901 104.731 48.1515 106.14 47.2399L103.902 43.3038Z" fill="#1D1346"/>
</svg>
